<svg width="200" height="200" viewBox="0 0 200 200" fill="none" xmlns="http://www.w3.org/2000/svg">
  <rect width="200" height="200" rx="28" fill="#FFF7F2"/>
  <path d="M52 128H148L140 96H60L52 128Z" fill="#F3D7C7"/>
  <path d="M60 96L72 68H128L140 96H60Z" fill="#FCE4D9"/>
  <path d="M72 68C78 60 88 56 100 56C112 56 122 60 128 68H72Z" fill="#F9B8C4"/>
  <rect x="50" y="128" width="100" height="16" rx="8" fill="#E8C9B8"/>
  <circle cx="100" cy="60" r="10" fill="#EB8DA5"/>
  <path d="M96 54C96 50 100 44 104 44C108 44 110 48 110 52C110 58 106 60 104 64C100 60 96 58 96 54Z" fill="#F6A5B9"/>
</svg>
