<svg width="200" height="200" viewBox="0 0 200 200" fill="none" xmlns="http://www.w3.org/2000/svg">
  <rect width="200" height="200" rx="28" fill="#F3FBF5"/>
  <rect x="62" y="76" width="76" height="66" rx="24" fill="#E3F4E4"/>
  <rect x="70" y="84" width="60" height="42" rx="16" fill="#A3CC92"/>
  <rect x="62" y="142" width="76" height="14" rx="7" fill="#D1E7CE"/>
  <path d="M138 98C150 98 156 106 156 114C156 124 144 130 134 130H128V120H134C138 120 144 118 144 114C144 110 140 108 134 108H128V98H138Z" fill="#BFE1BB"/>
  <ellipse cx="100" cy="74" rx="28" ry="10" fill="#EDFAEB"/>
  <ellipse cx="100" cy="74" rx="20" ry="6" fill="#D2ECCF"/>
  <path d="M80 84C74 76 70 66 72 58C78 58 84 64 88 72L80 84Z" fill="#C5E5BC"/>
</svg>
