<svg width="200" height="200" viewBox="0 0 200 200" fill="none" xmlns="http://www.w3.org/2000/svg">
  <rect width="200" height="200" rx="28" fill="#FFF6F2"/>
  <rect x="18" y="18" width="64" height="64" rx="14" fill="#F7D1DA"/>
  <rect x="34" y="34" width="32" height="32" rx="6" fill="#2F2730"/>
  <rect x="118" y="18" width="64" height="64" rx="14" fill="#F7D1DA"/>
  <rect x="134" y="34" width="32" height="32" rx="6" fill="#2F2730"/>
  <rect x="18" y="118" width="64" height="64" rx="14" fill="#F7D1DA"/>
  <rect x="34" y="134" width="32" height="32" rx="6" fill="#2F2730"/>
  <rect x="82" y="18" width="20" height="20" rx="4" fill="#2F2730"/>
  <rect x="82" y="46" width="20" height="20" rx="4" fill="#E6BCCD"/>
  <rect x="82" y="74" width="20" height="20" rx="4" fill="#2F2730"/>
  <rect x="110" y="82" width="20" height="20" rx="4" fill="#2F2730"/>
  <rect x="82" y="102" width="20" height="20" rx="4" fill="#E6BCCD"/>
  <rect x="110" y="110" width="20" height="20" rx="4" fill="#2F2730"/>
  <rect x="138" y="110" width="20" height="20" rx="4" fill="#E6BCCD"/>
  <rect x="82" y="130" width="20" height="20" rx="4" fill="#2F2730"/>
  <rect x="110" y="138" width="20" height="20" rx="4" fill="#E6BCCD"/>
  <rect x="138" y="138" width="20" height="20" rx="4" fill="#2F2730"/>
  <rect x="166" y="82" width="16" height="16" rx="4" fill="#2F2730"/>
  <rect x="166" y="110" width="16" height="16" rx="4" fill="#E6BCCD"/>
  <rect x="166" y="138" width="16" height="16" rx="4" fill="#2F2730"/>
  <rect x="82" y="158" width="48" height="16" rx="4" fill="#2F2730"/>
  <rect x="138" y="166" width="28" height="8" rx="4" fill="#E6BCCD"/>
</svg>
