<svg xmlns="http://www.w3.org/2000/svg" width="160" height="160" viewBox="0 0 160 160" fill="none">
  <rect width="160" height="160" rx="24" fill="#F9F5F3"/>
  <path d="M28 52H52V28H28V52ZM36 36H44V44H36V36Z" fill="#C6727E"/>
  <path d="M108 52H132V28H108V52ZM116 36H124V44H116V36Z" fill="#6BA6C8"/>
  <path d="M28 132H52V108H28V132ZM36 116H44V124H36V116Z" fill="#D0B59E"/>
  <path d="M70 70H90V90H70V110H90V130H70" stroke="#BA8E8B" stroke-width="6" stroke-linecap="round" stroke-linejoin="round"/>
  <path d="M102 70H122V90H102V110H122V130H102" stroke="#A3BBCF" stroke-width="6" stroke-linecap="round" stroke-linejoin="round"/>
  <circle cx="80" cy="44" r="6" fill="#BA8E8B"/>
  <circle cx="116" cy="104" r="6" fill="#A3BBCF"/>
</svg>
