<svg xmlns="http://www.w3.org/2000/svg" style="display:none">
  <symbol id="files" viewBox="0 0 24 24" fill="currentColor">
    <path d="M7 3h5l5 5v11a2 2 0 0 1-2 2H7a2 2 0 0 1-2-2V5a2 2 0 0 1 2-2zm5 1v4h4"/>
  </symbol>
  <symbol id="search" viewBox="0 0 24 24" fill="currentColor">
    <path d="M21 21l-4.35-4.35M10 18a8 8 0 1 1 0-16 8 8 0 0 1 0 16z" stroke="currentColor" stroke-width="2" fill="none" stroke-linecap="round"/>
  </symbol>
  <symbol id="branch" viewBox="0 0 24 24" fill="currentColor">
    <path d="M6 3a3 3 0 1 0 0 6 3 3 0 0 0 0-6zm0 12a3 3 0 1 0 0 6 3 3 0 0 0 0-6zm12-8a3 3 0 1 0 0 6 3 3 0 0 0 0-6zM6 9v6m3-9h6m0 0h3m-9 6h6m0 0h3" stroke="currentColor" stroke-width="1.5" fill="none" stroke-linecap="round"/>
  </symbol>
  <symbol id="play" viewBox="0 0 24 24" fill="currentColor">
    <path d="M8 5v14l11-7z"/>
  </symbol>
  <symbol id="extensions" viewBox="0 0 24 24" fill="currentColor">
    <path d="M10 3H5a2 2 0 0 0-2 2v5h3V6h4V3zm4 18h5a2 2 0 0 0 2-2v-5h-3v4h-4v3zM3 14v5a2 2 0 0 0 2 2h5v-3H6v-4H3zm18-9V5a2 2 0 0 0-2-2h-5v3h4v4h3V5z"/>
  </symbol>
  <symbol id="sun" viewBox="0 0 24 24" fill="currentColor">
    <path d="M12 4V2m0 20v-2M4 12H2m20 0h-2M5 5l-1.5-1.5M20.5 20.5L19 19M5 19L3.5 20.5M20.5 3.5L19 5" stroke="currentColor" stroke-width="1.5" fill="none" stroke-linecap="round"/>
    <circle cx="12" cy="12" r="4"/>
  </symbol>
  <symbol id="account" viewBox="0 0 24 24" fill="currentColor">
    <path d="M12 12a5 5 0 1 0-5-5 5 5 0 0 0 5 5zm0 2c-5 0-9 2.5-9 5v1h18v-1c0-2.5-4-5-9-5z"/>
  </symbol>
  <symbol id="new-file" viewBox="0 0 24 24" fill="currentColor">
    <path d="M14 2H6a2 2 0 0 0-2 2v16a2 2 0 0 0 2 2h12a2 2 0 0 0 2-2V8z"/>
    <path d="M14 2v6h6"/>
    <path d="M12 10v8M8 14h8" stroke="currentColor" stroke-width="1.3" fill="none" stroke-linecap="round"/>
  </symbol>
  <symbol id="new-folder" viewBox="0 0 24 24" fill="currentColor">
    <path d="M10 4l2 2h8a2 2 0 0 1 2 2v10a2 2 0 0 1-2 2H4a2 2 0 0 1-2-2V6a2 2 0 0 1 2-2z"/>
    <path d="M12 11v6M9 14h6" stroke="currentColor" stroke-width="1.3" fill="none" stroke-linecap="round"/>
  </symbol>
  <symbol id="markdown" viewBox="0 0 24 24" fill="currentColor">
    <path d="M3 7a2 2 0 0 1 2-2h14a2 2 0 0 1 2 2v10a2 2 0 0 1-2 2H5a2 2 0 0 1-2-2z"/>
    <path d="M6 15V9h2l2 2 2-2h2v6m-2-2h4" stroke="currentColor" stroke-width="1.3" fill="none" stroke-linecap="round"/>
  </symbol>
  <symbol id="ts" viewBox="0 0 24 24" fill="currentColor">
    <rect x="3" y="3" width="18" height="18" rx="2"/>
    <path d="M9 8h6m-3 0v8m-6 0h4" stroke="#fff" stroke-width="1.5"/>
  </symbol>
  <symbol id="json" viewBox="0 0 24 24" fill="currentColor">
    <path d="M6 7c-2 0-3 2-3 5s1 5 3 5m12-10c2 0 3 2 3 5s-1 5-3 5" stroke="currentColor" stroke-width="1.5" fill="none" stroke-linecap="round"/>
  </symbol>
  <symbol id="html" viewBox="0 0 24 24" fill="currentColor">
    <path d="M3 3h18l-2 18-7 2-7-2z"/>
    <path d="M7 8h10l-1 9-4 1-4-1 .5-4.5M12 8v10" stroke="#fff" stroke-width="1.3" fill="none"/>
  </symbol>
  <symbol id="file" viewBox="0 0 24 24" fill="currentColor">
    <path d="M6 2h9l5 5v15a2 2 0 0 1-2 2H6a2 2 0 0 1-2-2V4a2 2 0 0 1 2-2z"/>
  </symbol>
  <symbol id="chevron-down" viewBox="0 0 24 24" fill="currentColor">
    <path d="M6 9l6 6 6-6"/>
  </symbol>
</svg>
